<?xml version="1.0" encoding="UTF-8"?> <svg xmlns="http://www.w3.org/2000/svg" width="540" height="92" viewBox="0 0 540 92" fill="none"> <path d="M60 74.7872V22.234H71.0961V30.9255H71.6051C72.1481 29.578 72.7928 28.2979 73.5393 27.0851C74.3537 25.8723 75.3038 24.828 76.3897 23.9521C77.5434 23.0089 78.8668 22.3014 80.3599 21.8298C81.9208 21.2908 83.7193 21.0213 85.7552 21.0213C89.3521 21.0213 92.5419 21.8972 95.3244 23.6489C98.1069 25.4007 100.143 28.0957 101.432 31.734H101.738C102.688 28.7695 104.52 26.2429 107.235 24.1543C109.95 22.0656 113.445 21.0213 117.72 21.0213C123.014 21.0213 127.12 22.8067 130.038 26.3777C132.956 29.8812 134.415 34.9007 134.415 41.4362V74.7872H123.319V42.75C123.319 38.7074 122.539 35.6755 120.978 33.6543C119.417 31.5656 116.94 30.5213 113.546 30.5213C112.121 30.5213 110.764 30.7234 109.474 31.1277C108.185 31.4645 107.031 32.0035 106.013 32.7447C105.063 33.4858 104.283 34.4291 103.672 35.5745C103.061 36.7199 102.756 38.0337 102.756 39.516V74.7872H91.6596V42.75C91.6596 34.5975 88.4359 30.5213 81.9887 30.5213C80.6313 30.5213 79.274 30.7234 77.9167 31.1277C76.6272 31.4645 75.4735 32.0035 74.4555 32.7447C73.4375 33.4858 72.6231 34.4291 72.0123 35.5745C71.4015 36.7199 71.0961 38.0337 71.0961 39.516V74.7872H60Z" fill="#00114F"></path> <path d="M183.059 66.0957H182.55C181.396 69.195 179.496 71.6206 176.849 73.3723C174.27 75.1241 171.216 76 167.687 76C160.968 76 155.776 73.6082 152.112 68.8245C148.447 63.9734 146.615 57.2021 146.615 48.5106C146.615 39.8191 148.447 33.0816 152.112 28.2979C155.776 23.4468 160.968 21.0213 167.687 21.0213C171.216 21.0213 174.27 21.8972 176.849 23.6489C179.496 25.3333 181.396 27.7589 182.55 30.9255H183.059V22.234H194.155V74.7872H183.059V66.0957ZM171.046 66.5C174.44 66.5 177.29 65.6915 179.598 64.0745C181.905 62.3901 183.059 60.2004 183.059 57.5053V39.516C183.059 36.8209 181.905 34.6649 179.598 33.0479C177.29 31.3635 174.44 30.5213 171.046 30.5213C167.178 30.5213 164.09 31.7677 161.783 34.2606C159.475 36.6862 158.321 39.9202 158.321 43.9628V53.0585C158.321 57.1011 159.475 60.3688 161.783 62.8617C164.09 65.2872 167.178 66.5 171.046 66.5Z" fill="#00114F"></path> <path d="M225.062 76C220.04 76 215.833 75.1241 212.439 73.3723C209.046 71.6206 206.094 69.195 203.583 66.0957L210.709 59.6277C212.677 61.9858 214.849 63.8386 217.224 65.1862C219.667 66.4663 222.483 67.1064 225.673 67.1064C228.931 67.1064 231.34 66.5 232.901 65.2872C234.53 64.0071 235.344 62.2553 235.344 60.0319C235.344 58.3475 234.767 56.9326 233.614 55.7872C232.528 54.5745 230.593 53.7996 227.811 53.4628L222.925 52.8564C217.495 52.1826 213.22 50.633 210.098 48.2074C207.044 45.7145 205.517 42.0425 205.517 37.1915C205.517 34.6312 205.992 32.3741 206.942 30.4202C207.892 28.3989 209.216 26.7145 210.912 25.367C212.677 23.9521 214.747 22.8741 217.122 22.133C219.565 21.3918 222.246 21.0213 225.164 21.0213C229.915 21.0213 233.783 21.7624 236.769 23.2447C239.823 24.7269 242.538 26.7819 244.913 29.4096L238.093 35.8777C236.735 34.2606 234.937 32.8794 232.697 31.734C230.526 30.5213 228.015 29.9149 225.164 29.9149C222.11 29.9149 219.837 30.5213 218.344 31.734C216.918 32.9468 216.206 34.5301 216.206 36.484C216.206 38.5053 216.851 40.0213 218.14 41.0319C219.429 42.0426 221.499 42.7837 224.35 43.2553L229.236 43.8617C235.073 44.7376 239.314 46.4557 241.961 49.016C244.676 51.5089 246.033 54.8777 246.033 59.1223C246.033 61.6826 245.524 64.0071 244.506 66.0957C243.556 68.117 242.165 69.8688 240.332 71.3511C238.5 72.8333 236.294 73.9787 233.715 74.7872C231.136 75.5957 228.252 76 225.062 76Z" fill="#00114F"></path> <path d="M272.532 74.7872C268.664 74.7872 265.745 73.8103 263.777 71.8564C261.809 69.8351 260.825 67.0053 260.825 63.367V31.2287H252.579V22.234H257.058C258.891 22.234 260.146 21.8298 260.825 21.0213C261.572 20.2128 261.945 18.8989 261.945 17.0798V7.88297H271.921V22.234H283.017V31.2287H271.921V65.7925H282.203V74.7872H272.532Z" fill="#00114F"></path> <path d="M313.602 76C309.802 76 306.408 75.3599 303.422 74.0798C300.436 72.7996 297.891 70.9805 295.787 68.6223C293.683 66.1968 292.054 63.2996 290.901 59.9309C289.815 56.4947 289.272 52.6879 289.272 48.5106C289.272 44.3333 289.815 40.5603 290.901 37.1915C292.054 33.7553 293.683 30.8582 295.787 28.5C297.891 26.0745 300.436 24.2216 303.422 22.9415C306.408 21.6613 309.802 21.0213 313.602 21.0213C317.47 21.0213 320.864 21.695 323.782 23.0426C326.768 24.3901 329.245 26.2766 331.213 28.7021C333.181 31.0603 334.641 33.8227 335.591 36.9894C336.609 40.156 337.118 43.5585 337.118 47.1968V51.3404H300.775V53.0585C300.775 57.1011 301.963 60.4362 304.338 63.0638C306.781 65.6241 310.243 66.9043 314.722 66.9043C317.979 66.9043 320.728 66.1968 322.968 64.7819C325.207 63.367 327.107 61.4468 328.668 59.0213L335.183 65.3883C333.215 68.6223 330.365 71.2163 326.632 73.1702C322.9 75.0567 318.556 76 313.602 76ZM313.602 29.6117C311.702 29.6117 309.937 29.9486 308.308 30.6223C306.748 31.2961 305.39 32.2394 304.236 33.4521C303.151 34.6649 302.302 36.1135 301.692 37.7979C301.081 39.4823 300.775 41.3351 300.775 43.3564V44.0638H325.411V43.0532C325.411 39.0106 324.359 35.7766 322.255 33.3511C320.151 30.8582 317.267 29.6117 313.602 29.6117Z" fill="#00114F"></path> <path d="M347.335 74.7872V22.234H358.431V32.3404H358.94C359.687 29.6454 361.248 27.2872 363.623 25.266C365.999 23.2447 369.29 22.234 373.498 22.234H376.45V32.8457H372.073C367.661 32.8457 364.268 33.5532 361.893 34.9681C359.585 36.383 358.431 38.4716 358.431 41.234V74.7872H347.335Z" fill="#00114F"></path> <path d="M384.914 0H396.01V30.9255H396.519C397.672 28.0957 399.403 25.7376 401.71 23.8511C404.086 21.9645 407.309 21.0213 411.381 21.0213C416.811 21.0213 421.018 22.8067 424.004 26.3777C427.058 29.8812 428.585 34.9007 428.585 41.4362V74.7872H417.489V42.75C417.489 34.5975 414.164 30.5213 407.513 30.5213C406.088 30.5213 404.663 30.7234 403.237 31.1277C401.88 31.4645 400.658 32.0035 399.573 32.7447C398.487 33.4858 397.605 34.4291 396.926 35.5745C396.315 36.7199 396.01 38.0337 396.01 39.516V74.7872H384.914V0Z" fill="#00114F"></path> <path d="M470.753 66.0957H470.346C469.871 67.3759 469.226 68.6223 468.412 69.8351C467.666 71.0479 466.681 72.1259 465.46 73.0691C464.306 73.945 462.881 74.6525 461.184 75.1915C459.556 75.7305 457.655 76 455.484 76C449.986 76 445.711 74.2482 442.657 70.7447C439.671 67.2411 438.178 62.2216 438.178 55.6862V22.234H449.274V54.2713C449.274 62.4238 452.667 66.5 459.454 66.5C460.879 66.5 462.27 66.3316 463.628 65.9947C464.985 65.5904 466.172 65.0177 467.19 64.2766C468.276 63.5355 469.125 62.5922 469.735 61.4468C470.414 60.3014 470.753 58.9539 470.753 57.4043V22.234H481.85V74.7872H470.753V66.0957Z" fill="#00114F"></path> <path d="M492.46 0H503.556V30.9255H504.065C505.219 27.7589 507.085 25.3333 509.664 23.6489C512.311 21.8972 515.398 21.0213 518.928 21.0213C525.646 21.0213 530.838 23.4468 534.503 28.2979C538.168 33.0816 540 39.8191 540 48.5106C540 57.2021 538.168 63.9734 534.503 68.8245C530.838 73.6082 525.646 76 518.928 76C515.398 76 512.311 75.1241 509.664 73.3723C507.085 71.6206 505.219 69.195 504.065 66.0957H503.556V74.7872H492.46V0ZM515.568 66.5C519.437 66.5 522.524 65.2872 524.832 62.8617C527.139 60.3688 528.293 57.1011 528.293 53.0585V43.9628C528.293 39.9202 527.139 36.6862 524.832 34.2606C522.524 31.7677 519.437 30.5213 515.568 30.5213C512.175 30.5213 509.324 31.3635 507.017 33.0479C504.71 34.6649 503.556 36.8209 503.556 39.516V57.5053C503.556 60.2004 504.71 62.3901 507.017 64.0745C509.324 65.6915 512.175 66.5 515.568 66.5Z" fill="#00114F"></path> <path d="M0 92V80H52V92H0Z" fill="#2B5AFF"></path> </svg> 