<?xml version="1.0" encoding="UTF-8"?>
<svg xmlns="http://www.w3.org/2000/svg" xmlns:xlink="http://www.w3.org/1999/xlink" viewBox="0 0 35 35" width="35px" height="35px">
<g id="surface29463908">
<path style="fill-rule:nonzero;fill:rgb(0%,0%,0%);fill-opacity:1;stroke-width:2;stroke-linecap:butt;stroke-linejoin:round;stroke:rgb(0%,0%,0%);stroke-opacity:1;stroke-miterlimit:10;" d="M 140.386643 35.88354 C 136.795804 35.88354 131.671581 37.494564 124.761643 40.347825 C 117.677016 43.298136 66.298912 64.590837 26.605589 82.059781 C 16.706521 86.407607 14.299689 90.949532 24.489906 94.443321 C 27.129658 95.355588 33.923136 97.74301 40.891303 99.742234 C 44.016303 100.635091 46.656055 101.02329 49.004657 101.02329 C 53.604812 101.02329 57.040371 99.489905 60.57298 97.083072 C 64.124999 94.69565 91.920029 76.2368 111.951084 62.940992 C 112.378103 62.669253 112.805122 62.552794 113.19332 62.552794 C 114.959625 62.552794 116.29891 64.862576 114.707296 66.376551 C 99.839283 80.565216 80.739905 98.791147 77.828414 101.644408 C 69.656831 109.641302 76.17857 113.717389 80.895185 117.094718 C 86.097048 120.802016 109.971271 136.582295 114.707296 139.707295 C 118.181674 142.017078 121.229035 143.278723 123.829966 143.278723 C 128.546581 143.278723 131.788041 139.105587 133.573755 129.420028 C 138.29037 104.12888 144.171581 63.484471 146.229034 51.19798 C 148.014748 40.464285 146.423133 35.88354 140.386643 35.88354 M 140.386643 25.149844 C 147.199531 25.149844 151.236798 28.216614 153.430121 30.798136 C 158.651394 36.951086 158.088506 45.452639 156.82686 52.964285 C 156.205742 56.671583 155.235245 63.018632 154.051239 70.743787 C 151.275618 88.833849 147.45186 113.639749 144.152171 131.380432 C 140.677792 150.091612 131.186332 154.031829 123.829966 154.031829 C 119.152171 154.031829 114.241457 152.284934 108.787265 148.674686 C 105.895184 146.772512 80.312886 129.866457 74.664595 125.82919 L 74.121116 125.460401 C 70.297359 122.74301 63.892079 118.201084 63.251551 109.913041 C 63.193322 109.291923 63.173912 108.690215 63.193322 108.088507 C 59.583073 110.068321 54.963508 111.776395 49.004657 111.776395 C 45.569098 111.776395 41.93944 111.213507 37.921583 110.068321 C 31.341614 108.166147 24.897515 105.953414 21.811335 104.885867 L 20.996118 104.614128 C 9.932453 100.80978 7.370341 94.482141 7.176242 89.823756 C 6.729814 79.05124 18.434006 73.907607 22.277173 72.218942 C 46.908384 61.368787 81.458073 46.694875 119.57919 30.875776 L 120.646736 30.429347 C 129.575308 26.722049 135.475929 25.149844 140.386643 25.149844 Z M 140.386643 25.149844 " transform="matrix(0.20125,0,0,0.20125,0.1925,0.1925)"/>
<path style=" stroke:none;fill-rule:nonzero;fill:rgb(0%,0%,0%);fill-opacity:1;" d="M 28.445312 7.414062 C 29.660156 7.414062 29.980469 8.335938 29.621094 10.496094 C 29.207031 12.96875 28.023438 21.148438 27.074219 26.238281 C 26.714844 28.1875 26.0625 29.027344 25.113281 29.027344 C 24.589844 29.027344 23.976562 28.773438 23.277344 28.308594 C 22.324219 27.679688 17.519531 24.503906 16.472656 23.757812 C 15.523438 23.078125 14.210938 22.257812 15.855469 20.648438 C 16.441406 20.074219 20.285156 16.40625 23.277344 13.550781 C 23.597656 13.246094 23.328125 12.78125 22.972656 12.78125 C 22.894531 12.78125 22.808594 12.804688 22.722656 12.859375 C 18.691406 15.535156 13.097656 19.25 12.382812 19.730469 C 11.671875 20.214844 10.980469 20.523438 10.054688 20.523438 C 9.582031 20.523438 9.050781 20.445312 8.421875 20.265625 C 7.019531 19.863281 5.652344 19.382812 5.121094 19.199219 C 3.070312 18.496094 3.554688 17.582031 5.546875 16.707031 C 13.535156 13.191406 23.875 8.90625 25.300781 8.3125 C 26.691406 7.738281 27.722656 7.414062 28.445312 7.414062 M 28.445312 5.253906 C 27.457031 5.253906 26.269531 5.570312 24.472656 6.316406 L 24.257812 6.40625 C 16.585938 9.589844 9.632812 12.542969 4.675781 14.726562 C 3.902344 15.066406 1.546875 16.101562 1.636719 18.269531 C 1.675781 19.207031 2.191406 20.480469 4.417969 21.246094 L 4.582031 21.300781 C 5.203125 21.515625 6.5 21.960938 7.824219 22.34375 C 8.632812 22.574219 9.363281 22.6875 10.054688 22.6875 C 11.253906 22.6875 12.183594 22.34375 12.910156 21.945312 C 12.90625 22.066406 12.910156 22.1875 12.921875 22.3125 C 13.050781 23.980469 14.339844 24.894531 15.109375 25.441406 L 15.21875 25.515625 C 16.355469 26.328125 21.503906 29.730469 22.085938 30.113281 C 23.183594 30.839844 24.171875 31.191406 25.113281 31.191406 C 26.59375 31.191406 28.503906 30.398438 29.203125 26.632812 C 29.867188 23.0625 30.636719 18.070312 31.195312 14.429688 C 31.433594 12.875 31.628906 11.597656 31.753906 10.851562 C 32.007812 9.339844 32.121094 7.628906 31.070312 6.390625 C 30.628906 5.871094 29.816406 5.253906 28.445312 5.253906 Z M 28.445312 5.253906 "/>
</g>
</svg>
