<?xml version="1.0" encoding="UTF-8"?>
<svg xmlns="http://www.w3.org/2000/svg" xmlns:xlink="http://www.w3.org/1999/xlink" viewBox="0 0 41 41" width="41px" height="41px">
<g id="surface29422395">
<path style="fill-rule:nonzero;fill:rgb(0%,0%,0%);fill-opacity:1;stroke-width:2;stroke-linecap:butt;stroke-linejoin:round;stroke:rgb(0%,0%,0%);stroke-opacity:1;stroke-miterlimit:10;" d="M 140.380962 35.893955 C 136.801959 35.893955 131.665427 37.484623 124.772532 40.351139 C 117.680803 43.300503 66.298912 64.592257 26.615058 82.056467 C 16.706521 86.414235 14.28738 90.937697 24.477598 94.450422 C 27.128711 95.345173 33.938759 97.731175 40.897931 99.736079 C 44.012989 100.63083 46.647533 101.028497 49.000397 101.028497 C 53.590137 101.028497 57.036584 99.487538 60.582448 97.084966 C 64.111743 94.682394 91.915295 76.240587 111.96434 62.935311 C 112.378576 62.6702 112.792813 62.537644 113.207049 62.537644 C 114.963412 62.537644 116.288969 64.857369 114.698301 66.365189 C 99.835496 80.548646 80.74748 98.79162 77.831255 101.641567 C 69.645942 109.644616 76.174309 113.704133 80.896605 117.084303 C 86.082845 120.795862 109.976005 136.586556 114.698301 139.718183 C 118.194457 142.021338 121.226667 143.280617 123.828073 143.280617 C 128.533799 143.280617 131.781413 139.105114 133.587484 129.42855 C 138.276641 104.126986 144.175368 63.482104 146.229981 51.204135 C 148.019482 40.467125 146.428814 35.893955 140.380962 35.893955 M 140.380962 25.140376 C 147.207579 25.140376 151.250527 28.222295 153.437695 30.790561 C 158.657075 36.9544 158.093713 45.454532 156.834434 52.960497 C 156.221364 56.672056 155.243766 63.018159 154.050765 70.739527 C 151.267096 88.833376 147.456121 113.637855 144.158798 131.383746 C 140.679212 150.090665 131.184912 154.017626 123.828073 154.017626 C 119.155485 154.017626 114.234356 152.277833 108.783004 148.682261 C 105.883349 146.776773 80.316674 129.875925 74.666488 125.832977 L 74.136266 125.451879 C 70.308721 122.734488 63.89634 118.194457 63.250131 109.909727 C 63.200423 109.296657 63.183853 108.700157 63.200423 108.087087 C 59.588281 110.075422 54.965402 111.782076 49.000397 111.782076 C 45.570519 111.782076 41.941807 111.218714 37.931998 110.058852 C 31.337353 108.169934 24.908403 105.949626 21.809915 104.889181 L 20.998011 104.6075 C 9.929613 100.813094 7.377916 94.466992 7.179083 89.827543 C 6.731707 79.057395 18.429745 73.904293 22.27386 72.214208 C 46.912645 61.377782 81.459966 46.697242 119.569722 30.873409 L 120.646736 30.426033 C 129.577675 26.714474 135.476402 25.140376 140.380962 25.140376 Z M 140.380962 25.140376 " transform="matrix(0.23575,0,0,0.23575,0.2255,0.2255)"/>
<path style=" stroke:none;fill-rule:nonzero;fill:rgb(0%,0%,0%);fill-opacity:1;" d="M 33.320312 8.6875 C 34.746094 8.6875 35.121094 9.765625 34.699219 12.296875 C 34.214844 15.191406 32.824219 24.773438 31.71875 30.738281 C 31.292969 33.019531 30.527344 34.003906 29.417969 34.003906 C 28.804688 34.003906 28.089844 33.707031 27.265625 33.164062 C 26.152344 32.425781 20.519531 28.703125 19.296875 27.828125 C 18.183594 27.03125 16.644531 26.074219 18.574219 24.1875 C 19.261719 23.515625 23.761719 19.214844 27.265625 15.871094 C 27.640625 15.515625 27.328125 14.96875 26.914062 14.96875 C 26.816406 14.96875 26.71875 15 26.621094 15.0625 C 21.894531 18.199219 15.339844 22.546875 14.507812 23.113281 C 13.671875 23.679688 12.859375 24.042969 11.777344 24.042969 C 11.222656 24.042969 10.601562 23.949219 9.867188 23.738281 C 8.226562 23.265625 6.621094 22.703125 5.996094 22.492188 C 3.59375 21.664062 4.164062 20.597656 6.5 19.570312 C 15.855469 15.453125 27.96875 10.433594 29.640625 9.738281 C 31.265625 9.0625 32.476562 8.6875 33.320312 8.6875 M 33.320312 6.152344 C 32.164062 6.152344 30.773438 6.523438 28.667969 7.398438 L 28.414062 7.503906 C 19.429688 11.234375 11.285156 14.695312 5.476562 17.25 C 4.570312 17.648438 1.8125 18.863281 1.917969 21.402344 C 1.964844 22.496094 2.566406 23.992188 5.175781 24.886719 L 5.367188 24.953125 C 6.097656 25.203125 7.613281 25.726562 9.167969 26.171875 C 10.113281 26.445312 10.96875 26.578125 11.777344 26.578125 C 13.183594 26.578125 14.273438 26.175781 15.125 25.707031 C 15.121094 25.851562 15.125 25.992188 15.136719 26.136719 C 15.289062 28.089844 16.800781 29.160156 17.703125 29.800781 L 17.828125 29.890625 C 19.160156 30.84375 25.1875 34.828125 25.871094 35.277344 C 27.15625 36.125 28.316406 36.535156 29.417969 36.535156 C 31.152344 36.535156 33.390625 35.609375 34.210938 31.199219 C 34.988281 27.015625 35.886719 21.167969 36.542969 16.902344 C 36.824219 15.082031 37.054688 13.585938 37.199219 12.710938 C 37.496094 10.941406 37.628906 8.9375 36.398438 7.484375 C 35.882812 6.878906 34.929688 6.152344 33.320312 6.152344 Z M 33.320312 6.152344 "/>
</g>
</svg>
